<svg width="139" height="20" viewBox="0 0 139 20" fill="none" xmlns="http://www.w3.org/2000/svg">
<path d="M18.4551 8.26395L18.4581 8.73846C18.4582 8.76107 18.4767 8.7794 18.4994 8.77911C18.8646 8.7741 21.5623 8.73831 22.5042 8.76766C24.1059 8.81761 24.8705 10.2204 24.8705 11.5755C24.8705 13.3125 24.8763 18.9575 24.8705 19.8709C24.87 19.9425 24.9808 20.0004 25.0524 20L26.8793 19.9996C27.0898 19.9996 27.1032 19.9423 27.1034 19.8717C27.1064 18.9764 27.1034 13.5231 27.1034 11.5615C27.1034 9.52057 25.2976 8.55896 23.7228 8.46735C25.6562 8.3265 26.9849 7.13329 27.0654 5.45812C27.0913 4.91762 27.0528 3.43226 27.0519 3.29398C27.0399 1.38006 25.5066 0.0719018 23.4705 0.0172223C22.2892 -0.0144116 18.553 0.00562653 18.0477 0.0139287C18.0122 0.0145012 17.984 0.0434169 17.9841 0.0789157L18.4173 2.04179C18.4176 2.07787 18.447 2.10678 18.4833 2.10592C18.9267 2.0949 21.4999 2.03435 22.4097 2.09662C23.8394 2.19453 24.7332 3.36613 24.8109 4.45657C24.8289 4.70978 24.8186 5.472 24.8186 5.472C24.8278 6.94792 23.8534 8.15359 22.5149 8.1815L18.4956 8.22287C18.473 8.22301 18.4549 8.24148 18.4551 8.26395Z" fill="white"/>
<path d="M13.7098 8.29344L13.7128 8.76794C13.7129 8.79056 13.7314 8.80888 13.754 8.8086C14.1193 8.80359 16.5633 8.76938 17.5051 8.79872C19.1069 8.84868 19.8714 10.2514 19.8714 11.6066C19.8714 13.4177 19.8772 18.9577 19.8714 19.871C19.8709 19.9425 19.9817 20.0004 20.0533 20L22.0291 19.9987C22.0995 19.9983 22.1042 19.9413 22.1044 19.8709C22.1074 18.9754 22.1044 13.944 22.1044 11.5925C22.1044 9.55164 20.2985 8.59002 18.7238 8.49841C20.6571 8.35756 21.9858 7.16435 22.0663 5.48918C22.0922 4.94868 22.0537 3.46332 22.0528 3.32505C22.0408 1.41112 20.5141 0.0774833 18.478 0.022947C17.2967 -0.00868697 14.0444 0.0079177 13.539 0.0162198C13.5036 0.0167924 13.4754 0.0457059 13.4756 0.0812046L14.0706 2.01374C14.0709 2.04995 14.1004 2.07887 14.1366 2.07801C14.5801 2.06684 16.5074 2.03421 17.4174 2.09647C18.8469 2.19438 19.7342 3.39719 19.8118 4.48763C19.8299 4.74084 19.8196 5.50321 19.8196 5.50321C19.8287 6.97898 18.8544 8.18465 17.5159 8.21256L13.7503 8.25235C13.7277 8.2525 13.7096 8.27096 13.7098 8.29344Z" fill="white"/>
<path d="M8.64972 8.26395L8.64671 8.73846C8.64657 8.76107 8.6281 8.7794 8.60534 8.77911C8.24019 8.7741 5.54243 8.73831 4.60057 8.76766C2.99883 8.81761 2.23432 10.2204 2.23432 11.5755C2.23432 13.3125 2.22845 18.9575 2.23432 19.8709C2.23475 19.9425 2.12396 20.0004 2.05239 20L0.225493 19.9996C0.014934 19.9996 0.00147911 19.9423 0.00133597 19.8717C-0.00166997 18.9764 0.00133597 13.5231 0.00133597 11.5615C0.00133597 9.52057 1.80719 8.55896 3.38202 8.46735C1.44863 8.3265 0.119856 7.13329 0.0394111 5.45812C0.0135027 4.91762 0.0520077 3.43226 0.0528665 3.29398C0.0648903 1.38006 1.59821 0.0719018 3.63423 0.0172223C4.81557 -0.0144116 8.55181 0.00562653 9.05709 0.0139287C9.09259 0.0145012 9.12079 0.0434169 9.12065 0.0789157L8.68751 2.04179C8.68722 2.07787 8.65773 2.10678 8.62152 2.10592C8.17807 2.0949 5.60484 2.03435 4.69504 2.09662C3.26536 2.19453 2.37159 3.36613 2.29387 4.45657C2.27583 4.70978 2.28614 5.472 2.28614 5.472C2.27698 6.94792 3.25133 8.15359 4.58983 8.1815L8.60921 8.22287C8.63182 8.22301 8.64986 8.24148 8.64972 8.26395Z" fill="white"/>
<path d="M13.395 8.29344L13.3919 8.76794C13.3918 8.79056 13.3733 8.80888 13.3506 8.8086C12.9854 8.80359 10.5415 8.76938 9.59959 8.79872C7.99786 8.84868 7.23335 10.2514 7.23335 11.6066C7.23335 13.4177 7.22748 18.9577 7.23335 19.871C7.23377 19.9425 7.12298 20.0004 7.05141 20L5.07565 19.9987C5.00523 19.9983 5.0005 19.9413 5.00036 19.8709C4.99735 18.9754 5.00036 13.944 5.00036 11.5925C5.00036 9.55164 6.80622 8.59002 8.3809 8.49841C6.44765 8.35756 5.11888 7.16435 5.03843 5.48918C5.01253 4.94868 5.05103 3.46332 5.05189 3.32505C5.06391 1.41112 6.59065 0.0774833 8.62667 0.022947C9.80801 -0.00868697 13.0603 0.0079177 13.5657 0.0162198C13.6011 0.0167924 13.6293 0.0457059 13.6291 0.0812046L13.0341 2.01374C13.0338 2.04995 13.0043 2.07887 12.9681 2.07801C12.5247 2.06684 10.5973 2.03421 9.68734 2.09647C8.2578 2.19438 7.37047 3.39719 7.29289 4.48763C7.27486 4.74084 7.28516 5.50321 7.28516 5.50321C7.276 6.97898 8.25036 8.18465 9.58886 8.21256L13.3544 8.25235C13.3771 8.2525 13.3951 8.27096 13.395 8.29344Z" fill="white"/>
<path d="M12.2273 5.35121C12.2273 5.35121 12.2055 4.28396 12.2197 3.92911C12.2356 3.53476 12.3057 3.13211 12.4256 2.74892C12.7623 1.67308 14.2072 1.66406 14.5573 2.73561C14.682 3.11722 14.7571 3.51902 14.7779 3.91322C14.7966 4.26793 14.788 5.33518 14.788 5.33518C14.7938 6.23739 14.6118 7.06674 14.2938 7.71803C13.9714 8.37833 13.0819 8.38392 12.7513 7.72776C12.4251 7.08048 12.2328 6.25328 12.2273 5.35121ZM17.1255 11.624C17.0707 10.1371 16.0561 9.20139 14.9286 8.77984C14.5102 8.62339 14.12 8.53378 13.6939 8.50902C14.177 8.47381 14.5748 8.37318 14.977 8.21544C16.1839 7.74193 16.9748 6.75684 17.0352 5.50079C17.0611 4.96058 17.0224 3.47579 17.0216 3.33751C17.0143 2.1526 16.4738 1.2 15.5415 0.633457C14.9685 0.285197 14.2671 0.033413 13.4925 0.0126577L13.4747 0.0122296L13.457 0.0128018C12.6827 0.0432907 11.9838 0.303804 11.4152 0.659221C10.4901 1.23736 9.96149 2.19655 9.96893 3.3816C9.96979 3.51987 9.94975 5.00495 9.98239 5.54488C10.0584 6.79993 10.8616 7.77514 12.0744 8.23348C12.4786 8.38621 12.8775 8.48197 13.3611 8.51117C12.9352 8.54123 12.5462 8.63556 12.1296 8.7973C11.0076 9.23288 10.0567 10.1365 10.0205 11.624C9.97437 13.5234 10.0064 18.9738 10.0205 19.8689C10.0216 19.9393 10.129 19.997 10.1994 19.9966H12.1744C12.246 19.9962 12.3033 19.9403 12.302 19.8689C12.2848 18.9558 12.235 13.4094 12.302 11.624C12.3398 10.6168 12.6766 9.58529 13.5311 9.09031C14.3917 9.57456 14.8434 10.6172 14.8938 11.624C14.983 13.4084 14.8995 18.9557 14.8938 19.8689C14.8932 19.9403 14.9514 19.997 15.0229 19.9966H16.998C17.0684 19.9962 17.1252 19.9393 17.1255 19.8689C17.1285 18.9737 17.1954 13.5226 17.1255 11.624Z" fill="white"/>
<path d="M37.709 4.17049H49.335V6.29684H40.4009V10.0421H47.9694V11.9147H40.4009V17.0059H37.709V4.17049Z" fill="white"/>
<path d="M60.5312 12.3829L57.1174 6.33577H57.0981L53.6843 12.3829H60.5312ZM61.526 14.1579H52.6895L51.0901 17.0059H48.2615L55.6936 4.17063H58.8342L66.2661 17.0059H63.1256L61.526 14.1579Z" fill="white"/>
<path d="M76.4281 14.9771C78.6518 14.9771 79.4711 14.1969 79.4711 12.9875C79.4711 12.0316 78.4958 11.3295 76.6622 11.3295H70.7711V14.9771H76.4281ZM76.5451 9.55427C78.1447 9.55427 78.9835 8.91057 78.9835 7.87667C78.9835 6.88185 78.1641 6.19921 76.0185 6.19921H70.7711V9.55427H76.5451ZM68.0793 4.17049H76.1746C80.1345 4.17049 81.3439 5.731 81.3439 7.52555C81.3439 8.75455 80.6416 9.9054 79.1395 10.2761V10.2956C81.0901 10.6076 82.007 11.8561 82.007 13.2215C82.007 15.4452 80.6416 17.0059 76.7793 17.0059H68.0793V4.17049Z" fill="white"/>
<path d="M95.4264 14.8797C98.8401 14.8797 100.206 13.4166 100.206 10.5882C100.206 8.20833 98.9962 6.29684 95.0558 6.29684H91.3496V14.8797H95.4264ZM88.6577 4.17049H94.9582C101.005 4.17049 102.878 7.13549 102.878 10.5882C102.878 14.6651 100.83 17.0059 95.5045 17.0059H88.6577V4.17049Z" fill="white"/>
<path d="M115.517 12.3829L112.104 6.33577H112.084L108.671 12.3829H115.517ZM116.512 14.1579H107.676L106.076 17.0059H103.248L110.68 4.17063H113.82L121.252 17.0059H118.112L116.512 14.1579Z" fill="white"/>
<path d="M135.297 10.5297C135.297 8.0524 133.463 6.06261 129.796 6.06261C126.128 6.06261 124.295 8.0524 124.295 10.5297C124.295 13.2802 126.109 15.1138 129.796 15.1138C133.58 15.1138 135.297 13.1436 135.297 10.5297ZM121.525 10.5297C121.525 6.90141 124.217 3.93641 129.796 3.93641C135.375 3.93641 138.066 6.90141 138.066 10.5297C138.066 14.2555 135.55 17.24 129.796 17.24C124.197 17.24 121.525 14.4506 121.525 10.5297Z" fill="white"/>
</svg>
